<?xml version="1.0" encoding="UTF-8"?>
<svg xmlns="http://www.w3.org/2000/svg" xmlns:xlink="http://www.w3.org/1999/xlink" width="248.9pt" height="97.8pt" viewBox="0 0 248.9 97.8" version="1.1">
<defs>
<clipPath id="clip1">
  <path d="M 0 0 L 128 0 L 128 97.800781 L 0 97.800781 Z M 0 0 "/>
</clipPath>
<clipPath id="clip2">
  <path d="M 161 21 L 248.898438 21 L 248.898438 79 L 161 79 Z M 161 21 "/>
</clipPath>
</defs>
<g id="surface1">
<g clip-path="url(#clip1)" clip-rule="nonzero">
<path style=" stroke:none;fill-rule:evenodd;fill:#f7f7f2;fill-opacity:1;" d="M 127.472656 -0.0703125 L 32.414063 -0.0703125 L 0.0429688 97.765625 L 95.222656 97.765625 Z M 127.472656 -0.0703125 "/>
</g>
<path style=" stroke:none;fill-rule:evenodd;fill:rgb(89.0625%,0%,8.616638%);fill-opacity:1;" d="M 124.148438 2.386719 L 34.339844 2.386719 L 3.671875 95.230469 L 93.582031 95.230469 Z M 124.148438 2.386719 "/>
<g clip-path="url(#clip2)" clip-rule="nonzero">
<path style=" stroke:none;fill-rule:evenodd;fill:#f7f7f2;fill-opacity:1;" d="M 162.410156 61.964844 C 161.734375 63.484375 161.300781 65 161.109375 66.507813 C 161.070313 66.949219 161.050781 67.375 161.050781 67.785156 C 161.050781 69.875 161.589844 71.558594 162.675781 72.828125 C 163.804688 74.152344 165.644531 75.210938 168.191406 76 C 172.929688 77.464844 181.699219 78.199219 194.5 78.199219 C 204.914063 78.199219 212.960938 77.839844 218.644531 77.117188 C 222.210938 76.664063 225.226563 75.976563 227.683594 75.058594 C 231.191406 73.742188 233.921875 72.195313 235.875 70.421875 C 238.335938 68.183594 240.324219 65.011719 241.839844 60.90625 C 242.769531 58.398438 243.230469 56.269531 243.230469 54.519531 C 243.230469 51.691406 241.863281 49.589844 239.128906 48.210938 C 236.078125 46.671875 231.050781 45.761719 224.039063 45.476563 L 204.1875 44.671875 C 200.851563 44.5625 198.535156 44.324219 197.238281 43.96875 C 194.503906 43.21875 193.136719 41.671875 193.136719 39.339844 C 193.136719 38.613281 193.285156 37.820313 193.582031 36.957031 C 194.398438 34.59375 195.96875 32.917969 198.292969 31.941406 C 200.78125 30.890625 204.765625 30.363281 210.246094 30.363281 C 217.503906 30.363281 221.917969 30.804688 223.496094 31.683594 C 225.480469 32.679688 226.46875 34.15625 226.46875 36.109375 C 226.46875 36.511719 226.425781 36.929688 226.332031 37.359375 L 247.332031 37.359375 C 248.421875 34.675781 248.96875 32.398438 248.96875 30.527344 C 248.96875 29.058594 248.621094 27.8125 247.921875 26.789063 C 247.332031 25.925781 246.417969 25.125 245.183594 24.390625 L 245.132813 24.359375 C 244.257813 23.835938 243.519531 23.460938 242.929688 23.230469 C 241.914063 22.839844 240.605469 22.511719 239.003906 22.253906 C 234.832031 21.582031 227.765625 21.25 217.804688 21.25 C 209.320313 21.25 202.699219 21.453125 197.933594 21.863281 C 192.398438 22.339844 187.9375 23.183594 184.554688 24.398438 C 181.117188 25.632813 178.320313 27.417969 176.160156 29.75 C 174.015625 32.066406 172.203125 35.246094 170.71875 39.289063 C 169.9375 41.417969 169.546875 43.222656 169.546875 44.695313 C 169.546875 47.300781 170.949219 49.277344 173.757813 50.625 C 177.164063 52.261719 182.886719 53.253906 190.917969 53.597656 L 208.429688 54.347656 C 211.855469 54.492188 214.238281 54.753906 215.582031 55.128906 C 218.382813 55.914063 219.78125 57.476563 219.78125 59.816406 C 219.78125 60.523438 219.640625 61.289063 219.355469 62.113281 L 219.34375 62.152344 L 219.328125 62.191406 C 218.320313 64.6875 216.636719 66.429688 214.273438 67.421875 C 211.640625 68.527344 207.359375 69.082031 201.429688 69.082031 C 195.855469 69.082031 191.835938 68.925781 189.367188 68.617188 C 187.800781 68.417969 186.648438 68.09375 185.90625 67.636719 L 185.867188 67.613281 C 184.183594 66.6875 183.339844 65.339844 183.339844 63.566406 C 183.339844 63.066406 183.410156 62.53125 183.558594 61.964844 Z M 162.410156 61.964844 "/>
</g>
<path style=" stroke:none;fill-rule:evenodd;fill:#f7f7f2;fill-opacity:1;" d="M 64.300781 78.199219 L 84.597656 78.199219 L 85.546875 75.53125 L 91.390625 58.972656 L 110.511719 58.972656 C 118.308594 58.972656 122.207031 61.1875 122.207031 65.609375 C 122.207031 66.550781 120.292969 72.550781 119.90625 73.691406 L 118.390625 78.199219 L 138 78.199219 L 138.96875 75.53125 L 142.535156 65.515625 C 143.023438 64.171875 143.269531 63.070313 143.269531 62.207031 C 143.269531 61.316406 142.585938 60.710938 141.996094 59.773438 C 140.179688 56.882813 131.398438 54.273438 131.355469 54.652344 L 131.410156 54.144531 C 131.363281 54.605469 141.828125 52.820313 147.917969 46.214844 L 147.988281 46.140625 C 148.921875 45.128906 149.808594 43.816406 150.636719 42.210938 C 152.902344 37.828125 152.691406 32.636719 150.082031 28.433594 C 147.46875 24.230469 142.816406 21.597656 137.730469 21.441406 L 134.542969 21.347656 C 132.996094 21.300781 131.347656 21.277344 129.597656 21.277344 L 83.875 21.277344 L 65.21875 75.53125 Z M 94.257813 48.96875 L 101.398438 29.714844 L 121.507813 29.714844 C 124.878906 29.714844 127.398438 30.058594 129.0625 30.746094 C 131.503906 31.753906 132.722656 33.472656 132.722656 35.902344 C 132.722656 37.15625 132.359375 38.648438 131.636719 40.375 C 130.4375 43.546875 128.542969 45.800781 125.957031 47.140625 C 123.601563 48.359375 120.265625 48.96875 115.953125 48.96875 Z M 94.257813 48.96875 "/>
</g>
</svg>
